<?xml version="1.0" encoding="UTF-8"?>
<svg id="Capa_1" data-name="Capa 1" xmlns="http://www.w3.org/2000/svg" viewBox="0 0 793.93 241.83">
  <defs>
    <style>
      .cls-1 {
        fill: #e30613;
      }

      .cls-2 {
        font-family: Corbel, Corbel;
        font-size: 94.61px;
      }

      .cls-2, .cls-3 {
        fill: #202020;
      }

      .cls-4 {
        letter-spacing: -.04em;
      }
    </style>
  </defs>
  <g>
    <path class="cls-3" d="M392.31,45.26v22.92s-17.97.23-17.97.23l-.08,63.83-30.56.05v-63.94s-30.76,0-30.76,0l-.08,63.83-30.33.18.03-6.4.22-17.77.18-39.63-12.61-.37.12-22.75,12.17-.33.79-11.5c1.02-14.95,12.93-26.04,27.5-27.02,7.18-.49,18.02.2,24.98,4.46l-4.75,21.46c-6.26-2.16-16.17-3.17-17.83,3.53-.74,2.99-.8,5.69-.75,9.12l31.09.03c-1.42-18.98,6.12-35.63,26.03-38.65,6.8-1.03,20.63-.05,27.2,3.93l-4.49,22.16c-5.24-1.79-9.93-3.09-14.47-.62-4.31,2.35-5.17,9.01-3.86,13.13l18.23.12Z"/>
    <polygon class="cls-3" points="503.26 85.29 450.42 85.37 450.48 105.99 512.54 106.13 512.58 132.2 418.87 132.2 418.9 13.79 510.22 13.79 510.22 40.04 450.39 40.24 450.51 59.66 503.31 59.72 503.26 85.29"/>
    <path class="cls-3" d="M78.44,128.25c-23.32,10.98-58.52,4.84-78.44-10.24l9.57-24.31c13.19,8.75,36,18.54,51.18,12.93,1.98-.73,4.03-2.96,4.54-4.53,2.25-6.9-4.56-11.21-10.98-12.96C29.53,82.37,1.73,78.85,4.68,45.64,6.79,21.87,28.8,11.95,50.41,11.82c15.8-.09,31.06,2.73,44.97,11l-9.46,25.43-20.2-8.23c-7.87-1.5-15.54-3.12-23.3-.93-3.77,1.06-7.35,5.31-6.04,9.28s5.73,6.81,9.62,7.97l11.73,3.5c15.96,4.76,35.71,9.03,39.68,28.74,3.29,16.33-3.25,32.27-18.97,39.67Z"/>
    <path class="cls-3" d="M763.4,101.61l17.36,14.57c-8.4,11.23-20.39,16.18-33.46,17.27-16.48,1.37-32.12-2.74-43.37-15.2-7.83-8.67-10.87-18.89-10.89-30.4-.02-12.18,3.66-22.94,12.27-31.57,12.85-12.87,29.58-16.35,47.28-13.3,26.06,4.49,37.9,29.31,33.82,54.13l-62.54.17c2.19,8.29,9.84,12.87,18.09,12.87s14.81-1.87,21.44-8.55ZM757.03,79.32c.17-10.52-9.75-16.71-19.56-14.77-7.31,1.45-13.35,6.7-13.53,14.7l33.1.07Z"/>
    <path class="cls-3" d="M683.07,106.95l4.69,21.2c-12.31,5.99-26.23,7.8-39.03,2.4-8.44-3.56-14.58-12.36-14.69-21.7l-.46-40.19-12.56-.47.69-22.84,11.95-.21.11-24.23,30.49.04.23,24.23,19.51.11v22.95s-19.62.16-19.62.16l.16,32.96c.03,5.87,5.82,8.75,10.77,7.52l7.75-1.93Z"/>
    <path class="cls-3" d="M155.57,109.12l9.45-2.71,4.5,21.88c-11.35,5.39-23.6,7.33-35.64,3.73-9.2-2.75-17.61-11.23-17.69-21.16l-.33-42.34-12.68-.36.03-22.83,12.21-.3-.07-24.17,30.64.03.1,24.17,19.38.21.31,15.3c.05,2.48.52,5.4-.1,7.58l-19.65.31c-.08,11.57-.24,22.21.29,33.24.22,4.67,4.49,8.78,9.25,7.42Z"/>
    <polygon class="cls-3" points="558.76 132.09 528.14 132.19 528.14 9.47 558.74 9.48 558.76 132.09"/>
    <polygon class="cls-3" points="609.08 132.12 578.89 132.27 578.99 43.86 609.09 44.24 609.08 132.12"/>
  </g>
  <path class="cls-3" d="M264.95,87.75l-.03,42.83-23.95.04-.61-12.67c-4.95,8.58-13.04,14.18-23.14,14.83-26.45,1.71-46-19.62-45.17-45.34.85-26.23,20.79-45.87,47.02-44.49l-.18,24.16c-12.42-.18-20.18,9.52-20.03,21.29s7.57,20.23,19.23,20.53,20.89-8.2,20.48-21.12l26.37-.07Z"/>
  <circle class="cls-1" cx="593.99" cy="13.79" r="13.79"/>
  <text class="cls-2" transform="translate(616.39 219.2)"><tspan class="cls-4" x="0" y="0">P</tspan><tspan x="49.8" y="0">erú</tspan></text>
</svg>